<svg width="196" height="24" viewBox="0 0 196 24" fill="none" xmlns="http://www.w3.org/2000/svg">
<g id="Group 13">
<path id="DESIGNO" fill-rule="evenodd" clip-rule="evenodd" d="M92.9712 21.3838C94.4112 21.3838 95.6712 21.1458 96.7512 20.6698C97.8312 20.1938 98.6732 19.5038 99.2772 18.5998C99.8812 17.6958 100.183 16.6118 100.183 15.3478C100.183 14.4838 100.041 13.7398 99.7572 13.1158C99.4732 12.4918 99.0632 11.9458 98.5272 11.4778C97.9912 11.0098 97.3472 10.5838 96.5952 10.1998C95.8432 9.81584 95.0032 9.42784 94.0752 9.03584C93.6432 8.85984 93.2472 8.69384 92.8872 8.53784C92.5272 8.38184 92.2192 8.21784 91.9632 8.04584C91.7072 7.87384 91.5092 7.66984 91.3692 7.43384C91.2292 7.19784 91.1592 6.91184 91.1592 6.57584C91.1592 6.16784 91.2652 5.79784 91.4772 5.46584C91.6892 5.13384 91.9932 4.86784 92.3892 4.66784C92.7852 4.46784 93.2672 4.36784 93.8352 4.36784C94.3392 4.36784 94.8372 4.43984 95.3292 4.58384C95.8212 4.72784 96.2852 4.91784 96.7212 5.15384C97.1572 5.38984 97.5472 5.65584 97.8912 5.95184L99.5112 2.90384C99.0792 2.53584 98.5512 2.19584 97.9272 1.88384C97.3032 1.57184 96.6312 1.31984 95.9112 1.12784C95.1912 0.935844 94.4712 0.839844 93.7512 0.839844C92.7912 0.839844 91.9212 0.999844 91.1412 1.31984C90.3612 1.63984 89.6892 2.07184 89.1252 2.61584C88.5612 3.15984 88.1272 3.77984 87.8232 4.47584C87.5192 5.17184 87.3672 5.89984 87.3672 6.65984C87.3672 7.29984 87.4772 7.87784 87.6972 8.39384C87.9172 8.90984 88.2152 9.37184 88.5912 9.77984C88.9672 10.1878 89.3972 10.5458 89.8812 10.8538C90.3652 11.1618 90.8752 11.4358 91.4112 11.6758C92.1312 11.9878 92.7732 12.2738 93.3372 12.5338C93.9012 12.7938 94.3772 13.0578 94.7652 13.3258C95.1532 13.5938 95.4472 13.8938 95.6472 14.2258C95.8472 14.5578 95.9472 14.9598 95.9472 15.4318C95.9472 15.9518 95.8232 16.3858 95.5752 16.7338C95.3272 17.0818 94.9892 17.3438 94.5612 17.5198C94.1332 17.6958 93.6392 17.7838 93.0792 17.7838C92.4792 17.7838 91.9132 17.6978 91.3812 17.5258C90.8492 17.3538 90.3552 17.1378 89.8992 16.8778C89.4432 16.6178 89.0312 16.3438 88.6632 16.0558C88.2952 15.7678 87.9792 15.5078 87.7152 15.2758L85.7232 18.4918C85.9792 18.7398 86.3272 19.0278 86.7672 19.3558C87.2072 19.6838 87.7332 20.0018 88.3452 20.3098C88.9572 20.6178 89.6512 20.8738 90.4272 21.0778C91.2032 21.2818 92.0512 21.3838 92.9712 21.3838ZM48.1352 20.9998C49.5432 20.9998 50.8532 20.7498 52.0652 20.2498C53.2772 19.7498 54.3372 19.0498 55.2452 18.1498C56.1532 17.2498 56.8592 16.2018 57.3632 15.0058C57.8672 13.8098 58.1192 12.5118 58.1192 11.1118C58.1192 9.71984 57.8652 8.42384 57.3572 7.22384C56.8492 6.02384 56.1412 4.97184 55.2332 4.06784C54.3252 3.16384 53.2672 2.45984 52.0592 1.95584C50.8512 1.45184 49.5432 1.19984 48.1352 1.19984H42.6992V20.9998H48.1352ZM47.7032 17.5198H46.5872V4.67984H47.7032C48.5992 4.67984 49.4272 4.83984 50.1872 5.15984C50.9472 5.47984 51.6072 5.92984 52.1672 6.50984C52.7272 7.08984 53.1632 7.76984 53.4752 8.54984C53.7872 9.32984 53.9432 10.1798 53.9432 11.0998C53.9432 12.0278 53.7872 12.8818 53.4752 13.6618C53.1632 14.4418 52.7272 15.1198 52.1672 15.6958C51.6072 16.2718 50.9472 16.7198 50.1872 17.0398C49.4272 17.3598 48.5992 17.5198 47.7032 17.5198ZM78.0592 17.5918V20.9998H67.0432V1.19984H78.0592V4.60784H70.9312V9.37184H77.7712V12.7798H70.9312V17.5918H78.0592ZM109.167 1.19984H113.055V20.9998H109.167V1.19984ZM131.747 21.3838C132.915 21.3838 134.043 21.1858 135.131 20.7898C136.219 20.3938 137.195 19.8338 138.059 19.1098C138.923 18.3858 139.605 17.5258 140.105 16.5298C140.605 15.5338 140.855 14.4318 140.855 13.2238V10.2238H131.699V13.2358H136.895V13.5358C136.895 14.1518 136.759 14.7198 136.487 15.2398C136.215 15.7598 135.847 16.2118 135.383 16.5958C134.919 16.9798 134.389 17.2778 133.793 17.4898C133.197 17.7018 132.579 17.8078 131.939 17.8078C131.139 17.8078 130.393 17.6438 129.701 17.3158C129.009 16.9878 128.405 16.5198 127.889 15.9118C127.373 15.3038 126.971 14.5798 126.683 13.7398C126.395 12.8998 126.251 11.9638 126.251 10.9318C126.251 9.98784 126.379 9.11384 126.635 8.30984C126.891 7.50584 127.267 6.80384 127.763 6.20384C128.259 5.60384 128.869 5.13784 129.593 4.80584C130.317 4.47384 131.151 4.30784 132.095 4.30784C133.055 4.30784 134.029 4.48584 135.017 4.84184C136.005 5.19784 136.847 5.69984 137.543 6.34784L139.367 3.33584C138.719 2.79984 137.991 2.34584 137.183 1.97384C136.375 1.60184 135.533 1.31984 134.657 1.12784C133.781 0.935844 132.911 0.839844 132.047 0.839844C130.519 0.839844 129.139 1.10984 127.907 1.64984C126.675 2.18984 125.623 2.93384 124.751 3.88184C123.879 4.82984 123.211 5.92184 122.747 7.15784C122.283 8.39384 122.051 9.70784 122.051 11.0998C122.051 12.5558 122.299 13.9078 122.795 15.1558C123.291 16.4038 123.979 17.4938 124.859 18.4258C125.739 19.3578 126.767 20.0838 127.943 20.6038C129.119 21.1238 130.387 21.3838 131.747 21.3838ZM153.667 7.67984V20.9998H149.779V1.19984H153.667L162.199 14.5198V1.19984H166.087V20.9998H162.199L153.667 7.67984ZM185.031 21.3838C186.415 21.3838 187.711 21.1198 188.919 20.5918C190.127 20.0638 191.187 19.3298 192.099 18.3898C193.011 17.4498 193.725 16.3578 194.241 15.1138C194.757 13.8698 195.015 12.5358 195.015 11.1118C195.015 9.68784 194.757 8.35384 194.241 7.10984C193.725 5.86584 193.011 4.77384 192.099 3.83384C191.187 2.89384 190.127 2.15984 188.919 1.63184C187.711 1.10384 186.415 0.839844 185.031 0.839844C183.647 0.839844 182.351 1.10384 181.143 1.63184C179.935 2.15984 178.875 2.89384 177.963 3.83384C177.051 4.77384 176.337 5.86584 175.821 7.10984C175.305 8.35384 175.047 9.68784 175.047 11.1118C175.047 12.5358 175.305 13.8698 175.821 15.1138C176.337 16.3578 177.051 17.4498 177.963 18.3898C178.875 19.3298 179.935 20.0638 181.143 20.5918C182.351 21.1198 183.647 21.3838 185.031 21.3838ZM182.709 17.1598C183.417 17.4798 184.187 17.6398 185.019 17.6398C185.867 17.6398 186.643 17.4798 187.347 17.1598C188.051 16.8398 188.663 16.3878 189.183 15.8038C189.703 15.2198 190.107 14.5298 190.395 13.7338C190.683 12.9378 190.827 12.0638 190.827 11.1118C190.827 10.1598 190.683 9.28584 190.395 8.48984C190.107 7.69384 189.703 7.00384 189.183 6.41984C188.663 5.83584 188.051 5.38384 187.347 5.06384C186.643 4.74384 185.867 4.58384 185.019 4.58384C184.187 4.58384 183.417 4.74384 182.709 5.06384C182.001 5.38384 181.387 5.83584 180.867 6.41984C180.347 7.00384 179.945 7.69384 179.661 8.48984C179.377 9.28584 179.235 10.1598 179.235 11.1118C179.235 12.0638 179.377 12.9378 179.661 13.7338C179.945 14.5298 180.347 15.2198 180.867 15.8038C181.387 16.3878 182.001 16.8398 182.709 17.1598Z" fill="#333136"/>
<circle id="Oval" cx="12" cy="12" r="12" transform="matrix(0 -1 -1 0 24 24)" fill="url(#paint0_angular_340_1576)"/>
</g>
<defs>
<radialGradient id="paint0_angular_340_1576" cx="0" cy="0" r="1" gradientUnits="userSpaceOnUse" gradientTransform="translate(12 12) scale(12)">
<stop stop-color="#E7816B" stop-opacity="0.01"/>
<stop offset="0.999287" stop-color="#E7816B"/>
</radialGradient>
</defs>
</svg>
